<svg xmlns="http://www.w3.org/2000/svg" xmlns:xlink="http://www.w3.org/1999/xlink" contentStyleType="text/css" height="771px" preserveAspectRatio="none" style="width:801px;height:771px;background:#FFFFFF;" version="1.1" viewBox="0 0 801 771" width="801px" zoomAndPan="magnify"><title>L&#7895;i "error in libcrypto" khi d&#249;ng SSH Key tr&#234;n Windows</title><defs/><g><text fill="#000000" font-family="sans-serif" font-size="14" font-weight="bold" lengthAdjust="spacing" textLength="436.2422" x="178.8408" y="27.9951">L&#7895;i "error in libcrypto" khi d&#249;ng SSH Key tr&#234;n Windows</text><line style="stroke:#181818;stroke-width:0.5;stroke-dasharray:5.0,5.0;" x1="44" x2="44" y1="89.8906" y2="719.6797"/><line style="stroke:#181818;stroke-width:0.5;stroke-dasharray:5.0,5.0;" x1="321.7397" x2="321.7397" y1="89.8906" y2="719.6797"/><line style="stroke:#181818;stroke-width:0.5;stroke-dasharray:5.0,5.0;" x1="652.1348" x2="652.1348" y1="89.8906" y2="719.6797"/><line style="stroke:#181818;stroke-width:0.5;stroke-dasharray:5.0,5.0;" x1="758.4092" x2="758.4092" y1="89.8906" y2="719.6797"/><rect fill="#E2E2F0" height="46.5938" rx="2.5" ry="2.5" style="stroke:#181818;stroke-width:0.5;" width="79.208" x="5" y="42.2969"/><text fill="#000000" font-family="sans-serif" font-size="14" lengthAdjust="spacing" textLength="62.8018" x="13.2031" y="62.292">Windows</text><text fill="#000000" font-family="sans-serif" font-size="14" lengthAdjust="spacing" textLength="65.208" x="12" y="78.5889">Git Client</text><rect fill="#E2E2F0" height="46.5938" rx="2.5" ry="2.5" style="stroke:#181818;stroke-width:0.5;" width="79.208" x="5" y="718.6797"/><text fill="#000000" font-family="sans-serif" font-size="14" lengthAdjust="spacing" textLength="62.8018" x="13.2031" y="738.6748">Windows</text><text fill="#000000" font-family="sans-serif" font-size="14" lengthAdjust="spacing" textLength="65.208" x="12" y="754.9717">Git Client</text><rect fill="#E2E2F0" height="46.5938" rx="2.5" ry="2.5" style="stroke:#181818;stroke-width:0.5;" width="98.6904" x="272.7397" y="42.2969"/><text fill="#000000" font-family="sans-serif" font-size="14" lengthAdjust="spacing" textLength="65.6934" x="289.2383" y="62.292">OpenSSH</text><text fill="#000000" font-family="sans-serif" font-size="14" lengthAdjust="spacing" textLength="84.6904" x="279.7397" y="78.5889">on Windows</text><rect fill="#E2E2F0" height="46.5938" rx="2.5" ry="2.5" style="stroke:#181818;stroke-width:0.5;" width="98.6904" x="272.7397" y="718.6797"/><text fill="#000000" font-family="sans-serif" font-size="14" lengthAdjust="spacing" textLength="65.6934" x="289.2383" y="738.6748">OpenSSH</text><text fill="#000000" font-family="sans-serif" font-size="14" lengthAdjust="spacing" textLength="84.6904" x="279.7397" y="754.9717">on Windows</text><rect fill="#E2E2F0" height="46.5938" rx="2.5" ry="2.5" style="stroke:#181818;stroke-width:0.5;" width="129.2744" x="588.1348" y="42.2969"/><text fill="#000000" font-family="sans-serif" font-size="14" lengthAdjust="spacing" textLength="79.584" x="612.98" y="62.292">Private Key</text><text fill="#000000" font-family="sans-serif" font-size="14" lengthAdjust="spacing" textLength="115.2744" x="595.1348" y="78.5889">(macOS Format)</text><rect fill="#E2E2F0" height="46.5938" rx="2.5" ry="2.5" style="stroke:#181818;stroke-width:0.5;" width="129.2744" x="588.1348" y="718.6797"/><text fill="#000000" font-family="sans-serif" font-size="14" lengthAdjust="spacing" textLength="79.584" x="612.98" y="738.6748">Private Key</text><text fill="#000000" font-family="sans-serif" font-size="14" lengthAdjust="spacing" textLength="115.2744" x="595.1348" y="754.9717">(macOS Format)</text><rect fill="#E2E2F0" height="30.2969" rx="2.5" ry="2.5" style="stroke:#181818;stroke-width:0.5;" width="62.5146" x="727.4092" y="58.5938"/><text fill="#000000" font-family="sans-serif" font-size="14" lengthAdjust="spacing" textLength="48.5146" x="734.4092" y="78.5889">GitHub</text><rect fill="#E2E2F0" height="30.2969" rx="2.5" ry="2.5" style="stroke:#181818;stroke-width:0.5;" width="62.5146" x="727.4092" y="718.6797"/><text fill="#000000" font-family="sans-serif" font-size="14" lengthAdjust="spacing" textLength="48.5146" x="734.4092" y="738.6748">GitHub</text><polygon fill="#181818" points="310.085,117.0234,320.085,121.0234,310.085,125.0234,314.085,121.0234" style="stroke:#181818;stroke-width:1;"/><line style="stroke:#181818;stroke-width:1;" x1="44.604" x2="316.085" y1="121.0234" y2="121.0234"/><text fill="#000000" font-family="sans-serif" font-size="13" lengthAdjust="spacing" textLength="217.1343" x="51.604" y="115.9575">Load private key (macOS format)</text><polygon fill="#181818" points="640.772,146.1563,650.772,150.1563,640.772,154.1563,644.772,150.1563" style="stroke:#181818;stroke-width:1;"/><line style="stroke:#181818;stroke-width:1;" x1="322.085" x2="646.772" y1="150.1563" y2="150.1563"/><text fill="#000000" font-family="sans-serif" font-size="13" lengthAdjust="spacing" textLength="60.6011" x="329.085" y="145.0903">Read key</text><polygon fill="#181818" points="333.085,175.2891,323.085,179.2891,333.085,183.2891,329.085,179.2891" style="stroke:#181818;stroke-width:1;"/><line style="stroke:#181818;stroke-width:1;" x1="327.085" x2="651.772" y1="179.2891" y2="179.2891"/><text fill="#000000" font-family="sans-serif" font-size="13" lengthAdjust="spacing" textLength="109.0654" x="339.085" y="174.2231">error in libcrypto</text><polygon fill="#181818" points="55.604,204.4219,45.604,208.4219,55.604,212.4219,51.604,208.4219" style="stroke:#181818;stroke-width:1;"/><line style="stroke:#181818;stroke-width:1;" x1="49.604" x2="321.085" y1="208.4219" y2="208.4219"/><text fill="#000000" font-family="sans-serif" font-size="13" lengthAdjust="spacing" textLength="195.9014" x="61.604" y="203.356">Permission denied (publickey)</text><path d="M49,221.4219 L49,276.4219 L300,276.4219 L300,231.4219 L290,221.4219 L49,221.4219 " fill="#FEFFDD" style="stroke:#181818;stroke-width:0.5;"/><path d="M290,221.4219 L290,231.4219 L300,231.4219 L290,221.4219 " fill="#FEFFDD" style="stroke:#181818;stroke-width:0.5;"/><text fill="#000000" font-family="sans-serif" font-size="13" lengthAdjust="spacing" textLength="161.5225" x="55" y="238.4888">L&#7895;i x&#7843;y ra do private key</text><text fill="#000000" font-family="sans-serif" font-size="13" lengthAdjust="spacing" textLength="182.292" x="55" y="253.6216">&#273;&#432;&#7907;c t&#7841;o tr&#234;n macOS kh&#244;ng</text><text fill="#000000" font-family="sans-serif" font-size="13" lengthAdjust="spacing" textLength="230.0073" x="55" y="268.7544">t&#432;&#417;ng th&#237;ch ho&#224;n to&#224;n v&#7899;i Windows</text><rect fill="#EEEEEE" height="3" style="stroke:#EEEEEE;stroke-width:1;" width="794.9238" x="0" y="302.3867"/><line style="stroke:#000000;stroke-width:1;" x1="0" x2="794.9238" y1="302.3867" y2="302.3867"/><line style="stroke:#000000;stroke-width:1;" x1="0" x2="794.9238" y1="305.3867" y2="305.3867"/><rect fill="#EEEEEE" height="23.1328" style="stroke:#000000;stroke-width:2;" width="336.6704" x="229.1267" y="291.8203"/><text fill="#000000" font-family="sans-serif" font-size="13" font-weight="bold" lengthAdjust="spacing" textLength="318.1445" x="235.1267" y="307.8872">Kh&#7855;c ph&#7909;c l&#7895;i b&#7857;ng c&#225;ch t&#225;i t&#7841;o passphrase</text><polygon fill="#181818" points="310.085,342.0859,320.085,346.0859,310.085,350.0859,314.085,346.0859" style="stroke:#181818;stroke-width:1;"/><line style="stroke:#181818;stroke-width:1;" x1="44.604" x2="316.085" y1="346.0859" y2="346.0859"/><text fill="#000000" font-family="sans-serif" font-size="13" lengthAdjust="spacing" textLength="237.0723" x="51.604" y="341.02">ssh-keygen -p -f {private_key_path}</text><polygon fill="#181818" points="55.604,371.2188,45.604,375.2188,55.604,379.2188,51.604,375.2188" style="stroke:#181818;stroke-width:1;"/><line style="stroke:#181818;stroke-width:1;" x1="49.604" x2="321.085" y1="375.2188" y2="375.2188"/><text fill="#000000" font-family="sans-serif" font-size="13" lengthAdjust="spacing" textLength="132.1709" x="61.604" y="370.1528">Nh&#7853;p passphrase c&#361;</text><polygon fill="#181818" points="310.085,400.3516,320.085,404.3516,310.085,408.3516,314.085,404.3516" style="stroke:#181818;stroke-width:1;"/><line style="stroke:#181818;stroke-width:1;" x1="44.604" x2="316.085" y1="404.3516" y2="404.3516"/><text fill="#000000" font-family="sans-serif" font-size="13" lengthAdjust="spacing" textLength="253.481" x="51.604" y="399.2856">Nh&#7853;p passphrase m&#7899;i ho&#7863;c gi&#7919; nguy&#234;n</text><polygon fill="#181818" points="640.772,429.4844,650.772,433.4844,640.772,437.4844,644.772,433.4844" style="stroke:#181818;stroke-width:1;"/><line style="stroke:#181818;stroke-width:1;" x1="322.085" x2="646.772" y1="433.4844" y2="433.4844"/><text fill="#000000" font-family="sans-serif" font-size="13" lengthAdjust="spacing" textLength="306.687" x="329.085" y="428.4185">Regenerate key in Windows-compatible format</text><rect fill="#EEEEEE" height="3" style="stroke:#EEEEEE;stroke-width:1;" width="794.9238" x="0" y="462.0508"/><line style="stroke:#000000;stroke-width:1;" x1="0" x2="794.9238" y1="462.0508" y2="462.0508"/><line style="stroke:#000000;stroke-width:1;" x1="0" x2="794.9238" y1="465.0508" y2="465.0508"/><rect fill="#EEEEEE" height="23.1328" style="stroke:#000000;stroke-width:2;" width="158.9233" x="318.0002" y="451.4844"/><text fill="#000000" font-family="sans-serif" font-size="13" font-weight="bold" lengthAdjust="spacing" textLength="140.3975" x="324.0002" y="467.5513">Ki&#7875;m tra l&#7841;i k&#7871;t n&#7889;i</text><polygon fill="#181818" points="310.085,501.75,320.085,505.75,310.085,509.75,314.085,505.75" style="stroke:#181818;stroke-width:1;"/><line style="stroke:#181818;stroke-width:1;" x1="44.604" x2="316.085" y1="505.75" y2="505.75"/><text fill="#000000" font-family="sans-serif" font-size="13" lengthAdjust="spacing" textLength="229.1885" x="51.604" y="500.6841">Load private key (Windows format)</text><polygon fill="#181818" points="640.772,530.8828,650.772,534.8828,640.772,538.8828,644.772,534.8828" style="stroke:#181818;stroke-width:1;"/><line style="stroke:#181818;stroke-width:1;" x1="322.085" x2="646.772" y1="534.8828" y2="534.8828"/><text fill="#000000" font-family="sans-serif" font-size="13" lengthAdjust="spacing" textLength="60.6011" x="329.085" y="529.8169">Read key</text><polygon fill="#181818" points="333.085,560.0156,323.085,564.0156,333.085,568.0156,329.085,564.0156" style="stroke:#181818;stroke-width:1;"/><line style="stroke:#181818;stroke-width:1;" x1="327.085" x2="651.772" y1="564.0156" y2="564.0156"/><text fill="#000000" font-family="sans-serif" font-size="13" lengthAdjust="spacing" textLength="52.3301" x="339.085" y="558.9497">Success</text><polygon fill="#181818" points="55.604,589.1484,45.604,593.1484,55.604,597.1484,51.604,593.1484" style="stroke:#181818;stroke-width:1;"/><line style="stroke:#181818;stroke-width:1;" x1="49.604" x2="321.085" y1="593.1484" y2="593.1484"/><text fill="#000000" font-family="sans-serif" font-size="13" lengthAdjust="spacing" textLength="155.0986" x="61.604" y="588.0825">Key loaded successfully</text><polygon fill="#181818" points="746.6665,618.2813,756.6665,622.2813,746.6665,626.2813,750.6665,622.2813" style="stroke:#181818;stroke-width:1;"/><line style="stroke:#181818;stroke-width:1;" x1="44.604" x2="752.6665" y1="622.2813" y2="622.2813"/><text fill="#000000" font-family="sans-serif" font-size="13" lengthAdjust="spacing" textLength="137.4395" x="51.604" y="617.2153">Authenticate via SSH</text><polygon fill="#181818" points="55.604,647.4141,45.604,651.4141,55.604,655.4141,51.604,651.4141" style="stroke:#181818;stroke-width:1;"/><line style="stroke:#181818;stroke-width:1;" x1="49.604" x2="757.6665" y1="651.4141" y2="651.4141"/><text fill="#000000" font-family="sans-serif" font-size="13" lengthAdjust="spacing" textLength="105.2251" x="61.604" y="646.3481">Access granted!</text><path d="M49,664.4141 L49,704.4141 L292,704.4141 L292,674.4141 L282,664.4141 L49,664.4141 " fill="#FEFFDD" style="stroke:#181818;stroke-width:0.5;"/><path d="M282,664.4141 L282,674.4141 L292,674.4141 L282,664.4141 " fill="#FEFFDD" style="stroke:#181818;stroke-width:0.5;"/><text fill="#000000" font-family="sans-serif" font-size="13" lengthAdjust="spacing" textLength="150.0396" x="55" y="681.481">L&#7895;i &#273;&#227; &#273;&#432;&#7907;c kh&#7855;c ph&#7909;c,</text><text fill="#000000" font-family="sans-serif" font-size="13" lengthAdjust="spacing" textLength="222.4092" x="55" y="696.6138">c&#243; th&#7875; pull/push code b&#236;nh th&#432;&#7901;ng</text><!--SRC=[hLHDYnD14BtthoXpsWM3zq24HT25NTp57Bm4GazFPxh9J7VJtHCDuibVa9C74Gp1W-AoAmhYpC73hFaVyq-i-TXiOhAUl8IXk-gzLwzUnqiVSpWjyxSIEjnQRK4gY6N0xCnutO69a10MFrK4Wy4ndF0PU5jyLl1Sgb2_S8GOQhraqb3beTEU3jKJwU5HBBdo7Q2kgjukF3DS8U1GwJLKNTYUZtOQpgsSKiyh1KDra51sDe37sYRK7zQDxJrUR_UXaECqg4kQJq8G6xeFDwbwSAff2ARbcE2KBSMueI0RnLNlBLiFdd5inHPoUxW3l-lituXrsJctYNHEeYaXLvA7S63I89OCuGy9KHh5MHa93tfSUzeixcMPBMTWAOHwQmPoFLzTbVcIWI-pXMutrmms4SLtN2hngwlL0Z-yA2wO0A6B3mfy_JijytTolMYkGgW44DBlmuaeiqi6HfJvHmPnhI8eiwy8n8e5ulXY8LjMGvqpmbB7eT_Vxxvpeek28uvN1hfZUDMECSBJaQ5UlDxhrrEKSM4s6TZlJtiPTYkJUZgXo-m7WqYM-IMeA9sXG_zUDehaziPXkKvlb-a4XSe0drCJciOe17wJeFCKNShGaqcP_VAWodmkxxHZDumjoV-Auo1bZ3ktrzEgFaO163xNb8tJE9xT26qUKG-EKY_mTKjMQPnAMlqzaEPo3NLKjqDayINoyDxT0RwU5qjOXtMo6QxxG5Zn3UE9Fe919GzCwWGm7N88YYyAeoQgllSgMaVq3m00]--></g></svg>